<svg width="24" height="24" viewBox="0 0 24 24" xmlns="http://www.w3.org/2000/svg">
    <path
        d="M12 24C18.6274 24 24 18.6274 24 12C24 5.37258 18.6274 0 12 0C5.37258 0 0 5.37258 0 12C0 18.6274 5.37258 24 12 24ZM11.7369 9.75106C11.7938 9.66821 11.8511 9.58453 11.9091 9.5C11.967 9.58453 12.0244 9.66821 12.0812 9.75106C14.1411 12.7545 15.4545 14.6696 15.4545 16.5327C15.4545 18.4483 13.8685 20 11.9091 20C9.94964 20 8.36364 18.4483 8.36364 16.5327C8.36364 14.6696 9.67704 12.7545 11.7369 9.75106ZM12.3523 13.1919C12.3523 12.6092 12.1047 12.0567 11.8967 11.7394C11.8183 11.8533 11.7255 11.9808 11.626 12.1174C11.1723 12.7409 10.5795 13.5554 10.5795 14.141C10.5795 15.1823 12.3523 14.9017 12.3523 13.1919ZM8.41664 6.07731C9.39674 7.5069 10.1232 8.5666 10.4791 9.50583C9.57914 10.8201 8.81923 11.9541 8.25845 12.9895C7.00159 12.9347 6 11.9302 6 10.6882C6 9.44584 6.87652 8.16801 8.25186 6.16298C8.28876 6.10918 8.32602 6.05486 8.36364 6C8.38138 6.02589 8.39905 6.05166 8.41664 6.07731ZM8.1751 7.74514C7.87257 8.16087 7.47727 8.70409 7.47727 9.09458C7.47727 9.78817 8.65909 9.6015 8.65909 8.46167C8.65909 8.07317 8.49423 7.7045 8.35536 7.49333C8.30314 7.5692 8.24135 7.65411 8.1751 7.74514ZM16.5852 7.82456L16.6364 7.75C16.674 7.80486 16.7112 7.85919 16.7481 7.91299C18.1235 9.91802 19 11.1958 19 12.4382C19 13.7811 17.8152 14.9128 16.3238 14.7197C15.9763 13.6522 15.3553 12.5438 14.5191 11.2593C14.8752 10.3189 15.603 9.25729 16.5852 7.82456ZM16.4478 9.49515C16.1453 9.91088 15.75 10.4541 15.75 10.8446C15.75 11.5382 16.9318 11.3515 16.9318 10.2117C16.9318 9.82317 16.767 9.4545 16.6281 9.24333C16.5759 9.3192 16.5141 9.40412 16.4478 9.49515Z" />
</svg>