<svg width="780" height="780" viewBox="0 0 780 780" fill="none" xmlns="http://www.w3.org/2000/svg">
    <circle cx="390" cy="390" r="390" />
    <path d="M228.349 508.935C278.47 509.017 294.304 470.147 294.304 444.493L294.29 347.756C294.277 322.089 278.02 283.274 229.685 283.274H165.067V508.935H228.349ZM231.936 325.499C237.227 325.499 242.533 327.476 247.824 331.431C253.102 335.386 255.762 341.333 255.776 349.243V444.234C255.776 452.158 253.13 458.091 247.838 462.046C242.546 466.001 237.241 467.979 231.949 467.979H208.15V325.499H231.936Z" fill="white" />
    <path d="M358.95 323.576H431.615L431.629 283.315H345.448C330.241 283.697 318.198 296.326 318.567 311.533V482.163C318.949 497.383 331.605 509.412 346.825 509.017H431.629V468.688H358.95V416.303H403.37V375.974H358.95V323.576Z" fill="white" />
    <path d="M508.263 480.813C522.706 514.404 554.961 522.751 572.964 480.813L625.417 283.329H580.983L540.654 438.424L500.135 283.329H455.714L508.263 480.813Z" fill="white" />
</svg>
