<?xml version="1.0" standalone="no"?>
<!DOCTYPE svg PUBLIC "-//W3C//DTD SVG 20010904//EN"
 "http://www.w3.org/TR/2001/REC-SVG-20010904/DTD/svg10.dtd">
<svg version="1.0" xmlns="http://www.w3.org/2000/svg"
 width="386.000000pt" height="386.000000pt" viewBox="0 0 386.000000 386.000000"
 preserveAspectRatio="xMidYMid meet">
<metadata>
Created by potrace 1.11, written by Peter Selinger 2001-2013
</metadata>
<g transform="translate(0.000000,386.000000) scale(0.100000,-0.100000)"
fill="#000000" stroke="none">
<path d="M1735 3853 c-241 -28 -435 -84 -650 -188 -582 -283 -973 -822 -1069
-1475 -16 -106 -19 -364 -5 -483 56 -492 311 -956 698 -1273 234 -191 534
-335 821 -393 153 -31 228 -39 389 -39 317 -2 577 57 856 194 580 283 978 829
1069 1465 19 137 15 470 -8 589 -37 195 -82 337 -158 500 -281 601 -868 1024
-1525 1099 -75 8 -356 11 -418 4z"/>
</g>
</svg>
