<svg style="position: absolute; width: 0; height: 0; overflow: hidden;" version="1.1"
  xmlns="http://www.w3.org/2000/svg"
  xmlns:xlink="http://www.w3.org/1999/xlink">
  <defs>
    <symbol id="icon-mail" viewBox="0 0 32 32">
      <path d="M16 0c-8.837 0-16 7.163-16 16s7.163 16 16 16 16-7.163 16-16-7.163-16-16-16zM8 8h16c0.286 0 0.563 0.061 0.817 0.177l-8.817 10.286-8.817-10.287c0.254-0.116 0.531-0.177 0.817-0.177zM6 22v-12c0-0.042 0.002-0.084 0.004-0.125l5.864 6.842-5.8 5.8c-0.045-0.167-0.069-0.34-0.069-0.517zM24 24h-16c-0.177 0-0.35-0.024-0.517-0.069l5.691-5.691 2.826 3.297 2.826-3.297 5.691 5.691c-0.167 0.045-0.34 0.069-0.517 0.069zM26 22c0 0.177-0.024 0.35-0.069 0.517l-5.8-5.8 5.865-6.842c0.003 0.041 0.004 0.083 0.004 0.125v12z"></path>
    </symbol>
    <symbol id="icon-twitter" viewBox="0 0 24 24">
      <path d="M12 0c-6.627 0-12 5.373-12 12s5.373 12 12 12 12-5.373 12-12-5.373-12-12-12zm6.066 9.645c.183 4.04-2.83 8.544-8.164 8.544-1.622 0-3.131-.476-4.402-1.291 1.524.18 3.045-.244 4.252-1.189-1.256-.023-2.317-.854-2.684-1.995.451.086.895.061 1.298-.049-1.381-.278-2.335-1.522-2.304-2.853.388.215.83.344 1.301.359-1.279-.855-1.641-2.544-.889-3.835 1.416 1.738 3.533 2.881 5.92 3.001-.419-1.796.944-3.527 2.799-3.527.825 0 1.572.349 2.096.907.654-.128 1.27-.368 1.824-.697-.215.671-.67 1.233-1.263 1.589.581-.07 1.135-.224 1.649-.453-.384.578-.87 1.084-1.433 1.489z"/>
    </symbol>
    <symbol id="icon-rss" viewBox="0 0 24 24">
      <path d="M12 0c-6.627 0-12 5.373-12 12s5.373 12 12 12 12-5.373 12-12-5.373-12-12-12zm-3.374 17c-.897 0-1.626-.727-1.626-1.624s.729-1.624 1.626-1.624 1.626.727 1.626 1.624-.729 1.624-1.626 1.624zm3.885 0c-.03-3.022-2.485-5.474-5.511-5.504v-2.406c4.361.03 7.889 3.555 7.92 7.91h-2.409zm4.081 0c-.016-5.297-4.303-9.571-9.592-9.594v-2.406c6.623.023 11.985 5.384 12 12h-2.408z"/>
    </symbol>
    <symbol id="icon-github" viewBox="0 0 32 32">
      <path d="M16 0.395c-8.836 0-16 7.163-16 16 0 7.069 4.585 13.067 10.942 15.182 0.8 0.148 1.094-0.347 1.094-0.77 0-0.381-0.015-1.642-0.022-2.979-4.452 0.968-5.391-1.888-5.391-1.888-0.728-1.849-1.776-2.341-1.776-2.341-1.452-0.993 0.11-0.973 0.11-0.973 1.606 0.113 2.452 1.649 2.452 1.649 1.427 2.446 3.743 1.739 4.656 1.33 0.143-1.034 0.558-1.74 1.016-2.14-3.554-0.404-7.29-1.777-7.29-7.907 0-1.747 0.625-3.174 1.649-4.295-0.166-0.403-0.714-2.030 0.155-4.234 0 0 1.344-0.43 4.401 1.64 1.276-0.355 2.645-0.532 4.005-0.539 1.359 0.006 2.729 0.184 4.008 0.539 3.054-2.070 4.395-1.64 4.395-1.64 0.871 2.204 0.323 3.831 0.157 4.234 1.026 1.12 1.647 2.548 1.647 4.295 0 6.145-3.743 7.498-7.306 7.895 0.574 0.497 1.085 1.47 1.085 2.963 0 2.141-0.019 3.864-0.019 4.391 0 0.426 0.288 0.925 1.099 0.768 6.354-2.118 10.933-8.113 10.933-15.18 0-8.837-7.164-16-16-16z"></path>
    </symbol>
    <symbol id="icon-linkedin" viewBox="0 0 24 24">
      <path d="M12 0c-6.627 0-12 5.373-12 12s5.373 12 12 12 12-5.373 12-12-5.373-12-12-12zm-2 16h-2v-6h2v6zm-1-6.891c-.607 0-1.1-.496-1.1-1.109 0-.612.492-1.109 1.1-1.109s1.1.497 1.1 1.109c0 .613-.493 1.109-1.1 1.109zm8 6.891h-1.998v-2.861c0-1.881-2.002-1.722-2.002 0v2.861h-2v-6h2v1.093c.872-1.616 4-1.736 4 1.548v3.359z"/>
    </symbol>
    <symbol id="icon-github-octocat" viewBox="0 0 500 500">
      <path d="M 0,271.685 C 0,294.34 2.119,314.839 6.358,333.176 C 10.596,351.513 16.464,367.445 23.962,380.975 C 31.46,394.504 40.995,406.403 52.568,416.672 C 64.141,426.941 76.692,435.336 90.221,441.855 C 103.749,448.374 119.193,453.671 136.553,457.747 C 153.912,461.822 171.639,464.675 189.731,466.306 C 207.824,467.936 227.71,468.75 249.389,468.75 C 271.23,468.75 291.199,467.936 309.291,466.306 C 327.384,464.675 345.151,461.821 362.592,457.747 C 380.032,453.673 395.557,448.376 409.168,441.855 C 422.779,435.335 435.411,426.941 447.066,416.672 C 458.722,406.403 468.339,394.502 475.917,380.975 C 483.495,367.447 489.404,351.514 493.643,333.176 C 497.881,314.838 500,294.34 500,271.685 C 500,231.261 486.471,196.297 459.415,166.794 C 460.882,162.882 462.227,158.44 463.449,153.469 C 464.672,148.497 465.813,141.407 466.872,132.197 C 467.932,122.987 467.524,112.353 465.649,100.29 C 463.775,88.228 460.312,75.922 455.257,63.37 L 451.59,62.637 C 448.981,62.148 444.702,62.271 438.753,63.004 C 432.804,63.737 425.876,65.204 417.971,67.405 C 410.065,69.605 399.878,73.844 387.408,80.119 C 374.938,86.395 361.776,94.259 347.921,103.713 C 324.124,97.193 291.442,93.933 249.878,93.933 C 208.476,93.933 175.876,97.193 152.078,103.713 C 138.223,94.259 124.979,86.395 112.347,80.119 C 99.715,73.844 89.649,69.605 82.151,67.405 C 74.654,65.204 67.645,63.778 61.125,63.126 C 54.604,62.474 50.488,62.271 48.777,62.515 C 47.066,62.759 45.721,63.045 44.743,63.37 C 39.69,75.922 36.227,88.227 34.353,100.29 C 32.479,112.353 32.070,122.988 33.13,132.197 C 34.189,141.406 35.331,148.497 36.553,153.469 C 37.775,158.44 39.12,162.882 40.587,166.794 C 13.529,196.297 0,231.26 0,271.685 Z M 61.369,333.054 C 61.369,309.582 72.046,288.065 93.398,268.506 C 99.755,262.637 107.172,258.196 115.647,255.18 C 124.123,252.164 133.699,250.453 144.376,250.045 C 155.053,249.638 165.28,249.719 175.061,250.29 C 184.84,250.86 196.902,251.635 211.246,252.612 C 225.59,253.591 237.979,254.079 248.41,254.079 C 258.843,254.079 271.23,253.591 285.574,252.612 C 299.919,251.635 311.979,250.86 321.761,250.29 C 331.541,249.719 341.768,249.638 352.445,250.045 C 363.122,250.453 372.697,252.164 381.175,255.18 C 389.649,258.195 397.065,262.636 403.423,268.506 C 424.775,287.741 435.453,309.256 435.453,333.054 C 435.453,347.073 433.7,359.5 430.195,370.341 C 426.69,381.181 422.208,390.268 416.747,397.602 C 411.286,404.936 403.708,411.171 394.009,416.306 C 384.311,421.44 374.857,425.393 365.647,428.165 C 356.438,430.936 344.619,433.096 330.194,434.645 C 315.768,436.193 302.892,437.131 291.563,437.456 C 280.234,437.782 265.85,437.945 248.409,437.945 C 230.969,437.945 216.584,437.782 205.256,437.456 C 193.928,437.131 181.050,436.193 166.625,434.645 C 152.2,433.096 140.383,430.936 131.173,428.165 C 121.964,425.393 112.51,421.439 102.812,416.306 C 93.113,411.172 85.533,404.938 80.073,397.602 C 74.613,390.267 70.13,381.181 66.626,370.341 C 63.121,359.5 61.369,347.071 61.369,333.054 ZM 312.5,328.125A31.25,46.875 2520 1 0 375,328.125A31.25,46.875 2520 1 0 312.5,328.125zM 125,328.125A31.25,46.875 2520 1 0 187.5,328.125A31.25,46.875 2520 1 0 125,328.125z"></path>
    </symbol>
  </defs>
</svg>
